<svg width="96" height="96" viewBox="0 0 96 96" fill="none" xmlns="http://www.w3.org/2000/svg">
<path d="M45.8399 42.975C56.916 42.975 65.8949 33.9961 65.8949 22.92C65.8949 11.8439 56.916 2.86499 45.8399 2.86499C34.7638 2.86499 25.7849 11.8439 25.7849 22.92C25.7849 33.9961 34.7638 42.975 45.8399 42.975Z" fill="white"/>
<path fill-rule="evenodd" clip-rule="evenodd" d="M14.325 80.22C14.325 82.5 15.2322 84.6846 16.8438 86.2961C18.4553 87.9077 20.6399 88.815 22.92 88.815C33.9025 88.815 57.7775 88.815 68.76 88.815C71.04 88.815 73.2246 87.9077 74.8361 86.2961C76.4477 84.6846 77.3549 82.5 77.3549 80.22C77.3549 62.8151 63.2448 48.705 45.8399 48.705C28.4351 48.705 14.325 62.8151 14.325 80.22Z" fill="white"/>
</svg>
