<svg width="246" height="64" viewBox="0 0 246 64" fill="none" xmlns="http://www.w3.org/2000/svg">
<path fill-rule="evenodd" clip-rule="evenodd" d="M17.0288 10.3752C15.6538 11.0123 13.7701 12.3439 12.8432 13.3338C9.59756 16.7993 9.21631 18.7311 9.21631 31.7163C9.21631 44.7016 9.59756 46.6333 12.8432 50.0988C16.2944 53.7839 18.2769 54.2163 31.7163 54.2163C45.1557 54.2163 47.1382 53.7839 50.5894 50.0988C53.8351 46.6333 54.2163 44.7016 54.2163 31.7163C54.2163 18.7311 53.8351 16.7993 50.5894 13.3338C47.1382 9.64871 45.1557 9.21631 31.7163 9.21631C21.1701 9.21631 19.1919 9.37212 17.0288 10.3752ZM42.7979 17C42.1341 17.8016 42.7057 19.6402 43.5651 20.5C44.5351 21.4718 45.1476 21.2599 46.1176 20.2881C46.9769 19.4283 47.4616 18.3016 46.7979 17.5C46.3554 16.9668 45.1007 16.698 44.8413 16.698C44.8413 16.5 43.2404 16.4668 42.7979 17ZM26.8213 21.7598C19.2194 25.6276 18.5032 36.2506 25.5307 40.9069C34.8907 47.1089 46.5801 37.0829 41.7169 27.0243C38.9669 21.3367 32.2907 18.977 26.8213 21.7598ZM27.8869 25.2609C23.0276 28.2802 23.0844 35.3001 27.9913 38.2017C32.8294 41.0634 39.2163 37.3732 39.2163 31.7163C39.2163 26.0463 32.6469 22.3029 27.8869 25.2609Z" fill="white"/>
<path fill-rule="evenodd" clip-rule="evenodd" d="M115.494 10.3452C102.839 15.0274 96.7668 29.3919 102.421 41.2712C104.582 45.8109 110.393 51.2996 114.525 52.7046C120.047 54.5818 119.869 54.823 119.669 45.7129L119.493 37.705L116.817 37.5122L114.142 37.3188V34.5289V31.7384H116.975H119.808V28.2639C119.808 21.185 122.727 18.2858 129.462 18.6752L132.713 18.863L132.908 21.2183C133.098 23.5082 133.045 23.5735 131.002 23.5735C127.507 23.5735 126.103 25.0231 126.103 28.6339V31.7384H129.25C132.308 31.7384 132.398 31.7905 132.398 33.5711C132.398 36.8151 131.866 37.391 128.868 37.391H126.103V45.804V54.2163L128.149 53.7434C134.338 52.3114 140.625 47.2077 143.565 41.2298C145.086 38.1353 145.298 36.9771 145.298 31.7384C145.298 26.5179 145.084 25.3365 143.586 22.2935C141.387 17.8217 136.842 13.3065 132.422 11.2006C127.653 8.92888 120.324 8.55832 115.494 10.3452Z" fill="white"/>
<path fill-rule="evenodd" clip-rule="evenodd" d="M192.508 10.4634C191.512 11.5638 191.379 14.0654 191.379 31.8349C191.379 50.4656 191.472 52.0434 192.626 53.0879C193.727 54.084 196.228 54.2163 213.998 54.2163C232.629 54.2163 234.206 54.1236 235.251 52.9693C236.247 51.8688 236.379 49.3672 236.379 31.5977C236.379 12.967 236.287 11.3893 235.132 10.3447C234.032 9.34858 231.53 9.21631 213.761 9.21631C195.13 9.21631 193.552 9.30904 192.508 10.4634ZM205.781 26.2863C211.256 34.0536 207.996 32.4609 201.798 39.5C199.798 41.7713 201.298 42.5 202.856 43.989C203.698 43.989 205.634 42.3868 207.798 39.8981C209.756 37.6481 211.598 35.8072 211.893 35.8072C212.187 35.8072 213.72 37.6481 215.298 39.8981L218.168 43.989H222.501C224.884 43.989 226.834 43.8036 226.834 43.5772C226.834 43.3509 224.686 40.1184 222.061 36.3949C219.436 32.6709 217.798 30.2182 217.798 30C217.798 29.7818 220.509 27.5814 222.798 25C228.298 20 227.298 20.5 224.798 18.5C223.965 18.5 221.511 20.9456 219.547 23.1847C217.743 25.2424 216.086 26.9299 215.868 26.9347C215.649 26.9395 214.308 25.2561 212.887 23.1936L210.304 19.4436H205.631H200.958L205.781 26.2863ZM205.698 21.9111C205.698 22.1429 208.791 26.7452 212.572 32.1384C218.194 40.1559 219.748 41.9436 221.095 41.9436C222.001 41.9436 222.743 41.7581 222.743 41.5318C222.743 41.3047 219.631 36.7024 215.828 31.3045C210.26 23.4009 208.79 21.011 207.298 21C206.414 21 205.698 21.6786 205.698 21.9111Z" fill="white"/>
</svg>
