<svg width="289" height="60" viewBox="0 0 289 60" fill="none" xmlns="http://www.w3.org/2000/svg">
<path fill-rule="evenodd" clip-rule="evenodd" d="M156.65 1.32016C163.922 1.32016 170.896 4.20891 176.038 9.35095C181.18 14.493 184.069 21.4671 184.069 28.739V29.2838C184.069 36.748 181.104 43.9065 175.826 49.1844C170.548 54.4625 163.389 57.4276 155.925 57.4276H151.806V1.32016H156.65Z" fill="#F25E0D"/>
<path fill-rule="evenodd" clip-rule="evenodd" d="M202.783 1.32004L202.904 36.3467C203.605 39.8555 205.939 41.6387 208.175 41.8724C212.92 42.3684 215.798 40.8768 216.858 36.534L216.872 1.32004H227.012C227.012 1.32004 226.91 21.0314 226.828 37.0876C226.77 48.338 217.633 57.4275 206.383 57.4275C201.002 57.4275 195.843 55.2838 192.047 51.4706C188.251 47.6573 186.131 42.4888 186.155 37.1083C186.189 29.5078 186.227 21.0856 186.258 14.3219C186.29 7.13165 192.128 1.32004 199.319 1.32004H202.783Z" fill="#F25E0D"/>
<path fill-rule="evenodd" clip-rule="evenodd" d="M230.894 48.9821L241.214 59.3847L273.744 27.0898L274.011 57.4275H289C289 57.4275 289 33.242 289 16.6289C289 12.5688 287.387 8.67486 284.516 5.80389C281.645 2.93293 277.751 1.32 273.691 1.32H243.121L243.207 16.0707L262.236 16.0234L230.894 48.9821Z" fill="#9DA7BF"/>
<path fill-rule="evenodd" clip-rule="evenodd" d="M76.3511 17.8586H70.2915L70.15 43.106L73.8158 42.8854L73.942 33.3401L76.9394 33.3598L76.9393 33.3513L81.7674 33.3607L81.78 57.397L63.0967 57.5084L63.1754 1.40095L81.7805 1.43694L81.7787 17.8275L76.3512 17.8372L76.3511 17.8586Z" fill="#292F56"/>
<path fill-rule="evenodd" clip-rule="evenodd" d="M86.7441 57.343L86.6934 1.29758L96.2151 1.46536C104.177 2.33279 107.12 5.17614 109.409 8.34458C110.838 10.323 111.398 12.4748 111.669 14.7776C112.049 18.0156 111.687 22.2599 108.998 25.8027C108.135 26.9389 106.811 28.1798 105.347 29.1072C104.834 29.4322 103.804 29.9565 103.804 29.9565C103.804 29.9565 102.902 30.3363 102.496 30.656L114.14 56.001L130.246 1.29758H136.305L151.794 53.4543L151.807 57.405H140.674L138.086 49.8407L128.902 49.8585L126.296 57.405L86.7441 57.343ZM133.214 28.9357L131.3 41.2473L136.595 41.1625L134.499 28.9236L133.214 28.9357Z" fill="#292F56"/>
<path d="M44.5847 59.4461C52.7925 59.4461 59.4462 52.7923 59.4462 44.5845C59.4462 36.3767 52.7925 29.723 44.5847 29.723C36.3769 29.723 29.7231 36.3767 29.7231 44.5845C29.7231 52.7923 36.3769 59.4461 44.5847 59.4461Z" fill="#F25E0D"/>
<path d="M44.5847 29.9565C52.7925 29.9565 59.4462 23.3028 59.4462 15.095C59.4462 6.88719 52.7925 0.233456 44.5847 0.233456C36.3769 0.233456 29.7231 6.88719 29.7231 15.095C29.7231 23.3028 36.3769 29.9565 44.5847 29.9565Z" fill="#F25E0D"/>
<path d="M14.8615 29.723C23.0693 29.723 29.7231 23.0693 29.7231 14.8615C29.7231 6.65373 23.0693 0 14.8615 0C6.65373 0 0 6.65373 0 14.8615C0 23.0693 6.65373 29.723 14.8615 29.723Z" fill="#F25E0D"/>
<path d="M14.8615 59.4461C23.0693 59.4461 29.7231 52.7923 29.7231 44.5845C29.7231 36.3767 23.0693 29.723 14.8615 29.723C6.65373 29.723 0 36.3767 0 44.5845C0 52.7923 6.65373 59.4461 14.8615 59.4461Z" fill="#F25E0D"/>
</svg>
