<?xml version="1.0" encoding="UTF-8" standalone="no"?>
<!DOCTYPE svg PUBLIC "-//W3C//DTD SVG 1.1//EN" "http://www.w3.org/Graphics/SVG/1.1/DTD/svg11.dtd">
<svg width="100%" height="100%" viewBox="0 0 2181 1789" version="1.1" xmlns="http://www.w3.org/2000/svg" xmlns:xlink="http://www.w3.org/1999/xlink" xml:space="preserve" xmlns:serif="http://www.serif.com/" style="fill-rule:evenodd;clip-rule:evenodd;stroke-linecap:round;stroke-linejoin:round;stroke-miterlimit:1.5;">
    <g transform="matrix(1,0,0,1,-221.946877,-1771.86273)">
        <g transform="matrix(1,0,0,1,-692.051114,178.602028)">
            <path d="M1819.573,1613.342L1818.444,2417.597L2086.255,2416L2086.074,2071.459L1976.299,2072.061L1975.68,2211.151L1919.547,2211.151L1919.547,1849.249L2086.236,1848.803L2086.261,1613.858L1819.573,1613.342Z" style="fill:rgb(41,47,86);"/>
        </g>
        <g transform="matrix(1,0,0,1,-689.410918,178.324112)">
            <path d="M2159.139,2416.708L2158.412,1613.342L2294.898,1615.747C2409.033,1628.181 2451.206,1668.938 2484.02,1714.355C2504.51,1742.714 2512.531,1773.559 2516.412,1806.567C2521.869,1852.981 2516.671,1913.82 2478.128,1964.603C2465.766,1980.89 2446.784,1998.677 2425.797,2011.97C2418.441,2016.629 2403.68,2024.144 2403.68,2024.144C2403.68,2024.144 2390.746,2029.589 2384.93,2034.171L2551.831,2397.472L2782.708,1613.342L2869.558,1613.342L3091.579,2360.966L3091.757,2417.597L2932.188,2417.597L2895.086,2309.169L2763.439,2309.423L2726.087,2417.597L2159.139,2416.708ZM2820.879,2008.308L2793.435,2184.785L2869.341,2183.569L2839.291,2008.134L2820.879,2008.308Z" style="fill:rgb(41,47,86);stroke:white;stroke-width:1px;"/>
        </g>
        <g transform="matrix(1,0,0,1,-328.289958,533.607069)">
            <circle cx="1189.322" cy="1877.34" r="213.028" style="fill:rgb(240,244,239);"/>
        </g>
        <g transform="matrix(1,0,0,1,-328.289958,110.898264)">
            <circle cx="1189.322" cy="1877.34" r="213.028" style="fill:rgb(240,244,239);"/>
        </g>
        <g transform="matrix(1,0,0,1,-754.346431,107.550596)">
            <circle cx="1189.322" cy="1877.34" r="213.028" style="fill:rgb(240,244,239);"/>
        </g>
        <g transform="matrix(1,0,0,1,-754.346431,533.607069)">
            <circle cx="1189.322" cy="1877.34" r="213.028" style="fill:rgb(240,244,239);"/>
        </g>
        <g transform="matrix(1.142043,0,0,1.124534,-3308.973,826.098546)">
            <path d="M3214.636,1613.342C3305.908,1613.342 3393.442,1650.165 3457.982,1715.709C3522.521,1781.253 3558.779,1870.15 3558.779,1962.844L3558.779,2058.853C3558.779,2256.982 3400.627,2417.597 3205.535,2417.597L3091.757,2417.597L3091.757,1613.342L3214.636,1613.342Z" style="fill:rgb(242,94,13);"/>
        </g>
        <g transform="matrix(1.172996,0,0,1.138802,-3419.063301,803.078988)">
            <path d="M3822.471,1613.342L3824.173,2109.13C3834.058,2158.796 3866.949,2184.036 3898.466,2187.344C3965.345,2194.365 4005.9,2173.252 4020.834,2111.781L4021.034,1613.342L4163.945,1613.342C4163.945,1613.342 4162.408,1912.765 4161.222,2143.906C4160.474,2289.721 4045.503,2407.521 3903.937,2407.521L3842.574,2407.521C3774.856,2407.521 3709.929,2379.729 3662.157,2330.293C3614.384,2280.857 3587.703,2213.853 3588.016,2144.102C3588.561,2022.85 3589.191,1882.773 3589.667,1776.978C3590.074,1686.482 3661.411,1613.342 3749.27,1613.342L3822.471,1613.342Z" style="fill:rgb(242,94,13);stroke:white;stroke-width:0.87px;"/>
        </g>
        <g transform="matrix(1.156029,0,0,1.124534,-3442.952415,809.718078)">
            <path d="M4225.425,2296.54L4373,2445.652L4838.2,1982.731L4842.017,2417.597L5056.358,2417.597C5056.358,2417.597 5056.358,2046.521 5056.359,1808.482C5056.359,1756.728 5036.36,1707.093 5000.761,1670.497C4965.162,1633.902 4916.88,1613.342 4866.536,1613.342L4400.274,1613.342L4401.506,1824.781L4673.622,1824.103L4225.425,2296.54Z" style="fill:rgb(157,167,191);stroke:white;stroke-width:0.88px;"/>
        </g>
    </g>
</svg>
