<svg width="128" height="101" viewBox="0 0 128 101" fill="none" xmlns="http://www.w3.org/2000/svg">
<path fill-rule="evenodd" clip-rule="evenodd" d="M78.452 0V41.2084H72V49.1806H80V37.2223H100V47.0002H116V54.9724H128V8.22733H111.484V37.0349H99.092V0H78.452ZM0 4.11765V56.9734H13.8V64.9456H17.996V47.0082H27.644V39.036H47.996V29.2501H57.8V16.4666H49.544V12.345H37.164V16.4666H28.904V28.8036H12.796V4.11765H0ZM51.996 33.2362V50.9863H44.744V43.0141H31.648V50.9863H22V68.9238H9.796V60.9516H0.196L0.004 101H42.144V76.4854C41.394 76.4047 40.6823 76.1142 40.0908 75.6476C39.4994 75.181 39.0524 74.5573 38.8015 73.8484C38.5506 73.1394 38.5059 72.3743 38.6727 71.6412C38.8394 70.908 39.2108 70.2369 39.744 69.7051L61.176 48.3515C61.9115 47.6222 62.9026 47.2063 63.94 47.1915C65.02 47.1517 66.064 47.5901 66.832 48.3475L68.004 49.5194V33.2362H52.004H51.996ZM83.996 41.2084L84.068 64.8061C84.068 64.8061 84.052 65.2566 84.012 65.4838L88.252 69.7091C88.7852 70.2408 89.1565 70.912 89.3233 71.6451C89.4901 72.3783 89.4454 73.1434 89.1945 73.8523C88.9436 74.5612 88.4966 75.185 87.9052 75.6516C87.3138 76.1182 86.602 76.4087 85.852 76.4894V101H127.996V58.9585H111.996V50.9863H95.996V41.2084H83.996ZM63.996 51.1737L42.568 72.5272H85.424L63.996 51.1737ZM76.496 58.2889V61.2944L80.068 64.7982V58.2889H76.496ZM46.136 74.301V101H60.424V85.0157H67.568V101H81.856V74.301H46.136Z" fill="white"/>
</svg>
