<svg width="144" height="193" viewBox="0 0 144 193" fill="none" xmlns="http://www.w3.org/2000/svg">
<path fill-rule="evenodd" clip-rule="evenodd" d="M58.6708 0.636195C28.2468 6.1192 3.96483 32.3332 0.482833 63.4552C-1.47317 80.9342 2.48983 99.1482 12.8088 120.106C23.5228 141.868 37.0048 160.279 57.2948 180.856C66.9108 190.609 69.3878 192.609 71.8648 192.622C77.9768 192.654 109.652 157.065 122.74 135.46C149.141 91.8822 150.594 54.0942 126.969 25.4782C118.262 14.9312 105.039 6.2702 91.3488 2.1452C84.8148 0.176195 66.0338 -0.690805 58.6708 0.636195ZM63.3688 53.8562C60.9468 55.0932 57.5888 57.8352 55.9068 59.9492C53.0848 63.4952 52.8488 64.3952 52.8488 71.6062C52.8488 78.8172 53.0848 79.7172 55.9068 83.2632C59.7228 88.0592 66.5008 91.6062 71.8488 91.6062C77.1968 91.6062 83.9748 88.0592 87.7908 83.2632C90.6128 79.7172 90.8488 78.8172 90.8488 71.6062C90.8488 64.3952 90.6128 63.4952 87.7908 59.9492C83.9748 55.1532 77.1968 51.6062 71.8488 51.6062C69.5928 51.6062 65.8058 52.6112 63.3688 53.8562Z" fill="black"/>
</svg>
