<svg width="14" height="20" viewBox="0 0 14 20" fill="none" xmlns="http://www.w3.org/2000/svg">
<path fill-rule="evenodd" clip-rule="evenodd" d="M6.1592 0.0340435C3.79286 0.246125 1.7487 1.6332 0.686922 3.74739C0.453676 4.21178 0.168734 5.07016 0.0766069 5.58585C-0.0321197 6.19475 -0.0241226 7.15523 0.0942974 7.70626C0.354482 8.91695 0.76463 9.9068 1.54183 11.1999C1.92819 11.8427 3.63599 14.6673 4.31343 15.784C4.53577 16.1505 4.89309 16.7412 5.10743 17.0967C5.32182 17.4521 5.73984 18.1427 6.03638 18.6314C6.33295 19.1201 6.60457 19.5699 6.64003 19.6308C6.67545 19.6918 6.71458 19.7417 6.72702 19.7419C6.73942 19.742 6.90478 19.4831 7.09448 19.1666C7.28419 18.85 7.6487 18.2457 7.90452 17.8236C9.92808 14.4854 11.6843 11.5815 12.0082 11.0383C12.8574 9.61442 13.4696 7.79592 13.4696 6.69731C13.4696 5.40232 13.0038 3.94723 12.2449 2.8716C11.8566 2.32126 11.0333 1.51603 10.501 1.16602C9.45876 0.480703 8.48374 0.141033 7.2497 0.0332357C6.74035 -0.0112324 6.66357 -0.011192 6.1592 0.0340435ZM5.93577 3.7028C4.84555 3.97102 3.94012 4.86357 3.65057 5.9554C3.5334 6.3971 3.53405 7.07894 3.65202 7.52451C3.87873 8.38087 4.43839 9.09099 5.21834 9.51196C5.70797 9.77626 6.08052 9.86585 6.68425 9.86447C7.28839 9.8631 7.56231 9.80054 8.07767 9.54625C8.91016 9.13546 9.4977 8.40531 9.73696 7.48412C9.83519 7.106 9.83498 6.37419 9.73656 6.01001C9.41692 4.82722 8.524 3.94784 7.3831 3.69214C6.99872 3.60599 6.3086 3.61108 5.93577 3.7028Z" fill="white"/>
</svg>
