<svg width="128" height="102" viewBox="0 0 128 102" fill="none" xmlns="http://www.w3.org/2000/svg">
<path fill-rule="evenodd" clip-rule="evenodd" d="M61.7808 0.446179C61.0921 0.738932 47.1293 6.87728 30.7524 14.0873C10.9851 22.7897 0.81447 27.4051 0.49528 27.8172C-0.259978 28.7928 -0.137534 30.3704 0.76744 31.3183C1.33291 31.9104 9.45152 35.5985 31.8655 45.4455L62.1982 58.7711L64.1462 58.7427C66.0803 58.7146 66.2589 58.6417 89.0525 48.5692L112.011 38.4242L112.083 55.5157L112.154 72.6073L111.076 73.685C109.87 74.8914 109.195 76.7637 109.47 78.1392C109.608 78.828 109.491 79.1881 108.906 79.8813C107.071 82.0541 106.424 84.9686 107.167 87.7124C107.642 89.4667 110.174 94.3525 112.554 98.1093L114.733 101.549L116.667 98.5635C119.109 94.7939 121.394 90.4671 122.178 88.1298C123.192 85.1038 122.593 81.8802 120.686 80.1006C120.076 79.5312 119.988 79.2231 120.01 77.7352C120.039 75.8175 119.743 75.0773 118.376 73.6453L117.433 72.6576L117.505 54.3225L117.576 35.9873L122.166 33.9717C125.035 32.7113 126.99 31.6822 127.383 31.2253C128.147 30.3373 128.212 28.7119 127.519 27.8186C126.809 26.9033 65.962 0.148695 64.2854 0.0145629C63.4772 -0.0502768 62.589 0.102779 61.7808 0.446179ZM59.576 24.8454C58.4072 25.8289 58.3677 27.4362 59.485 28.5446C60.2302 29.284 60.9162 29.414 85.8522 33.5423C99.9333 35.8735 111.662 37.8952 111.916 38.0354C112.246 38.218 113.075 37.9817 114.838 37.2023C117.654 35.9572 117.913 35.5198 116.667 34.1242C115.867 33.2298 115.823 33.2181 108.093 31.8968C74.8036 26.2065 62.3084 24.1249 61.4397 24.1249C60.7618 24.1249 60.152 24.3606 59.576 24.8454ZM23.9344 55.5116C23.9344 67.5013 23.9531 67.6505 25.76 70.1183C26.2954 70.8494 27.5749 72.0705 28.6037 72.8321C39.3785 80.808 63.7711 83.6915 83.4868 79.3203C94.4244 76.895 101.978 72.4659 103.676 67.4821C104.015 66.4892 104.074 64.411 104.013 55.5597L103.941 44.84L85.0174 53.1932L66.0942 61.5464H64.0071L61.92 61.5461L43.4142 53.3813C33.236 48.8907 24.6894 45.0999 24.4214 44.9574C23.9614 44.7125 23.9344 45.3 23.9344 55.5116Z" fill="white"/>
</svg>
